# xmcd
#
# Track frame offsets: 
#        150
#        43768
#        72707
#        104257
#        134156
#        154123
#        182086
#        205823
#        229931
#        245030
#
# Disc length: 3603 seconds
#
# Revision: 0
# Processed by: cddbd v1.4b42PL1 Copyright (c) Steve Scherf et al.
# Submitted via: ExactAudioCopy v0.90a11
#
DISCID=9a0e110a
DTITLE=Impressions - Blue Grass Country
DYEAR=1900
DGENRE=
TTITLE0=Appalachian Quilt
TTITLE1=Heartland
TTITLE2=Tennessee Express
TTITLE3=Blue Moon Saloon
TTITLE4=Backwoods Banjos
TTITLE5=Daybreak
TTITLE6=Homespun Hoedown
TTITLE7=Hayride
TTITLE8=Aristocracy
TTITLE9=String Band Serenade
EXTD=
EXTT0=
EXTT1=
EXTT2=
EXTT3=
EXTT4=
EXTT5=
EXTT6=
EXTT7=
EXTT8=
EXTT9=
PLAYORDER=
